<mxfile host="app.diagrams.net" modified="2023-09-16T17:51:46.212Z" agent="Mozilla/5.0 (X11; Linux x86_64) AppleWebKit/537.36 (KHTML, like Gecko) Chrome/116.0.0.0 Safari/537.36" version="21.7.5" etag="xb9EN4sUr6lrt25KFwPF" type="github">
  <diagram name="Page-1" id="hoC7eDsF4mBXPgi6-oV7">
    <mxGraphModel>
      <root>
        <mxCell id="0" />
        <mxCell id="1" parent="0" />
      </root>
    </mxGraphModel>
  </diagram>
</mxfile>
